<svg width="1638" height="1111" viewBox="0 0 1638 1111" fill="none" xmlns="http://www.w3.org/2000/svg">
<g clip-path="url(#clip0_26_243)">
<path d="M1356.5 851.551C1338.09 907.025 1320.27 957.928 1302.96 1009C1274.47 1093.05 1273.26 1094.18 1185.37 1091.27C1172.57 1090.84 1159.83 1088.36 1140.22 1086.01C1174.77 989.305 1208.12 895.959 1243.83 796.026C1130.34 796.026 1019.66 796.979 909.025 795.223C886.872 794.871 864.883 784.197 842.819 778.283C853.373 754.262 858.097 724.418 875.375 707.114C1067.76 514.437 1262 323.604 1456.02 132.562C1478.55 110.376 1499.99 84.5284 1527.15 70.4151C1548.34 59.4046 1580.92 55.4503 1602.48 63.7894C1629.5 74.2457 1617.19 100.558 1608.42 124.73C1538.55 317.37 1470.76 510.764 1399.86 710.92C1452.91 710.92 1501.71 710.92 1555.2 710.92C1543.57 766.463 1528.16 801.933 1465.8 797.417C1424.27 794.409 1367.3 774.262 1356.5 851.551ZM1449.13 220.271C1433.1 231.543 1415.08 240.8 1401.36 254.402C1275.83 378.867 1150.7 503.738 1026.38 629.411C1004.14 651.898 986.165 678.611 960.527 710.44C1039.5 710.44 1108.35 710.443 1177.2 710.439C1269.84 710.433 1268.62 709.968 1301.23 624.244C1351.64 491.688 1403.92 359.839 1450.5 224.535C1450.31 223.043 1450.13 221.552 1449.94 220.06C1449.04 220.384 1448.13 220.708 1447.23 221.033C1449.94 223.33 1452.64 225.627 1449.13 220.271Z" fill="#B4520C"/>
<path d="M662.036 985.532C662.032 927.834 662.973 875.46 661.778 823.135C660.38 761.904 627.329 721.221 577.699 716.684C523.295 711.711 473.53 748.602 467.374 809.367C460.819 874.077 464.283 939.811 463.565 1005.1C463.146 1043.14 465.458 1084.26 411.298 1085.41C357.094 1086.56 356.117 1047.32 356.549 1007.68C357.16 951.593 357.31 895.489 356.584 839.408C355.591 762.746 320.735 716.785 264.842 716.712C200.286 716.627 157.717 761.172 154.573 837.466C152.036 899.046 153.14 960.832 154.425 1022.49C155.132 1056.43 144.504 1081.13 108.72 1085.56C68.7165 1090.51 47.6573 1065.01 46.9495 1029.93C44.5739 912.195 43.6905 794.301 47.9711 676.676C48.7047 656.516 74.5385 626.447 94.2775 621.038C111.815 616.232 136.988 639.303 167.16 654.202C284.603 579.829 383.05 605.796 440.695 689.991C479.067 640.46 525.066 610.814 591.74 613.274C705.137 617.46 767.162 678.063 767.746 795.481C768.118 870.265 766.183 945.083 767.88 1019.83C768.735 1057.43 757.227 1084.06 717.601 1085.18C679.524 1086.27 660.471 1063.31 661.988 1024.53C662.427 1013.33 662.043 1002.1 662.036 985.532Z" fill="#002A4D"/>
<path d="M1454.87 227.729C1452.64 225.627 1449.94 223.33 1447.23 221.033C1448.13 220.708 1449.04 220.384 1449.94 220.06C1450.13 221.552 1450.31 223.043 1452.95 226.113C1455.4 227.69 1454.4 227.534 1454.87 227.729Z" fill="#020202"/>
</g>
<defs>
<clipPath id="clip0_26_243">
<rect width="1638" height="1111" fill="white"/>
</clipPath>
</defs>
</svg>
