
<svg width="225" height="107" viewBox="0 0 225 107" fill="none" xmlns="http://www.w3.org/2000/svg">
<mask id="mask0_1_2" style="mask-type:luminance" maskUnits="userSpaceOnUse" x="0" y="0" width="225" height="107">
<path d="M0 3.7934e-06H224.891V106.309H0V3.7934e-06Z" fill="white"/>
</mask>
<g mask="url(#mask0_1_2)">
<path d="M21.4015 61.8125C21.4108 61.1619 21.1628 60.5352 20.7121 60.0645C20.2615 59.5952 19.6428 59.3219 18.9895 59.3032C18.6575 59.2992 18.3268 59.3619 18.0175 59.4872C17.7081 59.6112 17.4268 59.7952 17.1895 60.0285C16.9521 60.2619 16.7641 60.5392 16.6348 60.8459C16.5055 61.1525 16.4388 61.4805 16.4375 61.8125V79.7259C16.4308 80.3725 16.6801 80.9965 17.1295 81.4632C17.5801 81.9299 18.1961 82.2019 18.8441 82.2205C19.1761 82.2245 19.5068 82.1619 19.8148 82.0392C20.1228 81.9152 20.4028 81.7325 20.6401 81.5005C20.8775 81.2685 21.0655 80.9925 21.1961 80.6885C21.3255 80.3832 21.3948 80.0565 21.3975 79.7259V69.9285C21.3975 65.5592 24.1921 63.9192 27.0721 63.9192C29.7201 63.9192 31.6468 65.9379 31.6468 69.3939V79.7192C31.6401 80.3659 31.8895 80.9899 32.3388 81.4552C32.7895 81.9219 33.4055 82.1939 34.0535 82.2139C34.7255 82.2205 35.3708 81.9619 35.8508 81.4939C36.3295 81.0259 36.6028 80.3872 36.6108 79.7192V69.9285C36.6108 66.3259 38.7775 63.9192 42.0535 63.9192C44.9441 63.9192 46.8241 65.9832 46.8241 69.4899V79.7192C46.8175 80.3659 47.0668 80.9899 47.5161 81.4552C47.9668 81.9219 48.5828 82.1939 49.2308 82.2139C49.5628 82.2179 49.8921 82.1552 50.2001 82.0312C50.5081 81.9085 50.7895 81.7245 51.0268 81.4939C51.2641 81.2619 51.4521 80.9859 51.5828 80.6805C51.7121 80.3765 51.7815 80.0499 51.7841 79.7192V69.0659C51.7841 62.6792 48.6535 59.0765 43.1148 59.0765C41.0428 59.0765 37.6668 59.6525 35.5508 63.5405C34.2948 60.7139 32.0321 59.0765 28.4588 59.0765C26.6855 59.0765 22.8695 59.7832 21.3655 62.9192L21.4015 61.8125Z" fill="#1461A3"/>
<path d="M97.3268 81.9772C103.589 81.9772 107.299 77.5132 107.299 72.2785C107.299 69.0972 105.132 65.2092 101.231 64.3545C104.457 63.1065 105.519 60.2252 105.519 57.6385C105.519 52.2625 101.951 48.9012 96.2988 48.9012H86.2948C84.7521 48.9012 83.5961 49.9612 83.5961 51.6865V79.1985C83.5961 80.9305 84.7521 81.9839 86.2948 81.9839L97.3268 81.9772ZM88.7521 62.4839V53.6025H95.7841C98.5321 53.6025 100.216 55.1399 100.216 57.8439C100.216 60.3385 98.8201 62.5025 96.1215 62.5025L88.7521 62.4839ZM96.9335 66.8572C100.124 66.8572 101.944 69.7865 101.944 72.2319C101.944 74.7812 100.171 77.3252 97.0788 77.3252H88.7455V66.8572H96.9335Z" fill="#A55115"/>
<path d="M130.622 79.7256C130.616 80.3723 130.864 80.9963 131.315 81.4629C131.764 81.9296 132.38 82.2016 133.03 82.2216C133.362 82.2243 133.691 82.1616 133.999 82.0389C134.307 81.9149 134.587 81.7323 134.824 81.5003C135.062 81.2683 135.251 80.9923 135.38 80.6883C135.511 80.3829 135.579 80.0563 135.583 79.7256V61.8123C135.579 61.4816 135.511 61.1549 135.38 60.8496C135.251 60.5456 135.062 60.2696 134.824 60.0376C134.587 59.8056 134.307 59.6229 133.999 59.5003C133.691 59.3763 133.362 59.3136 133.03 59.3176C132.38 59.3363 131.764 59.6083 131.315 60.0749C130.864 60.5416 130.616 61.1656 130.622 61.8123V62.7243C129.079 60.1789 125.756 59.0776 123.058 59.0776C116.987 59.0776 111.639 63.5909 111.639 70.7403C111.639 77.8909 116.987 82.4576 123.058 82.4576C125.852 82.4576 129.128 81.2096 130.622 78.7603V79.7256ZM116.742 70.6989C116.742 66.5669 119.874 63.8763 123.632 63.8763C127.004 63.8763 130.572 66.2803 130.572 70.6989C130.572 75.1163 127.295 77.6616 123.632 77.6616C119.874 77.6616 116.742 74.8269 116.742 70.6989Z" fill="#A55115"/>
<path d="M142.228 79.7256C142.223 80.3736 142.472 80.9976 142.923 81.4643C143.373 81.9309 143.989 82.2029 144.64 82.2216C144.972 82.2243 145.301 82.1616 145.609 82.0389C145.917 81.9149 146.197 81.7323 146.435 81.5003C146.672 81.2683 146.86 80.9923 146.991 80.6883C147.121 80.3829 147.189 80.0563 147.192 79.7256V69.9283C147.192 65.5096 150.029 63.9189 152.973 63.9189C155.916 63.9189 157.693 65.9376 157.693 69.4896V79.7189C157.687 80.3656 157.936 80.9909 158.387 81.4576C158.839 81.9243 159.455 82.1949 160.104 82.2136C160.436 82.2176 160.765 82.1549 161.073 82.0323C161.381 81.9083 161.663 81.7256 161.9 81.4936C162.136 81.2616 162.325 80.9856 162.456 80.6816C162.585 80.3763 162.655 80.0496 162.657 79.7189V68.9203C162.657 62.5829 159.527 59.0776 154.08 59.0776C151.576 59.0776 148.491 60.3243 147.192 62.9189V61.8123C147.199 61.1643 146.949 60.5403 146.499 60.0736C146.048 59.6069 145.431 59.3363 144.781 59.3176C144.449 59.3136 144.12 59.3763 143.812 59.5003C143.504 59.6229 143.223 59.8056 142.987 60.0376C142.749 60.2696 142.56 60.5456 142.431 60.8496C142.3 61.1549 142.232 61.4816 142.228 61.8123V79.7256Z" fill="#A55115"/>
<path d="M197.825 44.2179C195.461 46.4072 193.707 48.1005 192.56 49.3005L187.705 54.3832L183.921 58.1539C182.716 59.4125 180.852 61.2725 178.329 63.7325C178.165 63.8952 177.672 64.3592 176.847 65.1245C175.889 65.9712 174.983 66.8739 174.133 67.8285C173.787 68.3219 173.401 68.7872 172.981 69.2205C172.928 69.2779 172.737 69.4259 172.407 69.6739C172.077 69.9205 171.915 70.0979 171.915 70.2072C171.915 70.4259 172.6 70.5632 173.971 70.6165H178.581C183.732 70.6165 186.805 70.5899 187.8 70.5365L195.201 50.6752C195.908 48.8205 196.783 46.6685 197.825 44.2179ZM204.896 39.7072L200.208 52.9085C199.057 56.0805 197.467 60.4259 195.439 65.9445C195.105 66.9832 194.557 68.5405 193.793 70.6139H200.967C201.407 70.6139 201.627 70.7765 201.627 71.0939C201.609 71.3485 201.524 71.5925 201.379 71.8019C201.055 72.2712 200.805 72.7872 200.637 73.3312C200.309 74.1325 199.652 74.5339 198.665 74.5339H195.456C194.965 74.5339 194.032 74.5605 192.659 74.6152L188.383 87.5792C188.287 87.8872 188.116 88.1672 187.887 88.3952C187.657 88.6219 187.376 88.7899 187.067 88.8832C186.459 89.0459 185.007 89.1272 182.708 89.1272C182.049 89.1272 181.719 88.9085 181.719 88.4779C181.719 88.2579 182.652 85.6219 184.517 80.5672C185.393 78.2299 186.103 76.2179 186.644 74.5339H171.421C169.936 74.5592 168.451 74.4779 166.977 74.2899L166.815 73.7979C166.689 73.4832 166.607 73.1525 166.567 72.8152C166.567 72.3819 167.06 71.7019 168.049 70.7725C172.049 66.9552 178.432 60.7112 187.197 52.0392L198.96 40.3405C199.513 39.8565 200.04 39.3432 200.539 38.8032C200.721 38.5885 200.951 38.4192 201.209 38.3059C201.468 38.1925 201.749 38.1392 202.031 38.1485C202.605 38.1272 203.175 38.2619 203.679 38.5352C204.183 38.8099 204.604 39.2152 204.896 39.7072Z" fill="#1461A3"/>
<path d="M65.9439 43.2387C51.4545 44.5853 31.9292 30.2813 31.9292 30.2813C31.9292 30.2813 37.5039 39.5453 47.7199 44.8853C50.0305 46.1253 52.4305 47.188 54.9012 48.0667C70.2625 86.3347 47.7199 98.0413 47.7199 98.0413C70.5505 90.9973 76.6039 59.3387 78.1385 46.2013C87.2132 40.8987 93.4799 31.0027 95.1425 24.764C95.1599 24.764 82.0892 41.74 65.9439 43.2387Z" fill="#1461A3"/>
<path d="M60.1708 35.1764C61.2988 39.3124 64.7801 41.9657 67.9721 41.1044C71.1641 40.2417 72.8335 36.1911 71.7095 32.0524C70.5855 27.9124 67.0828 25.2591 63.9081 26.1204C60.7348 26.9831 59.0428 31.0271 60.1708 35.1764Z" fill="#1461A3"/>
<path d="M64.05 8.40974L63.8914 8.42307C62.978 8.50174 62.3007 9.30307 62.3794 10.2137L63.0287 17.7311C63.1074 18.6417 63.9114 19.3164 64.8247 19.2377L64.9847 19.2244C65.8967 19.1457 66.574 18.3444 66.4954 17.4337L65.846 9.9164C65.7674 9.00574 64.9634 8.33107 64.05 8.40974Z" fill="#1461A3"/>
<path d="M70.3377 19.3947C70.7817 19.52 71.2577 19.464 71.6604 19.24C72.0631 19.016 72.3604 18.6427 72.4871 18.2L74.5004 11.092C74.5737 10.8707 74.6004 10.636 74.5791 10.404C74.5591 10.1707 74.4911 9.94533 74.3817 9.73867C74.2711 9.53333 74.1204 9.352 73.9377 9.20533C73.7564 9.05867 73.5457 8.94933 73.3204 8.88667C73.0951 8.82267 72.8591 8.804 72.6271 8.83333C72.3951 8.86267 72.1711 8.93867 71.9684 9.056C71.7657 9.17333 71.5897 9.33067 71.4497 9.51733C71.3097 9.70533 71.2084 9.91867 71.1537 10.1453L69.1351 17.2427C69.0711 17.4627 69.0511 17.6933 69.0777 17.92C69.1031 18.148 69.1737 18.368 69.2857 18.568C69.3977 18.7693 69.5484 18.9453 69.7284 19.0867C69.9097 19.228 70.1164 19.3333 70.3377 19.3947Z" fill="#1461A3"/>
<path d="M75.4368 21.4588C75.8115 21.7281 76.2768 21.8375 76.7328 21.7641C77.1875 21.6908 77.5955 21.4388 77.8661 21.0668L82.1995 15.0761C82.4688 14.7001 82.5781 14.2335 82.5035 13.7788C82.4288 13.3228 82.1741 12.9161 81.7981 12.6468C81.4221 12.3788 80.9541 12.2695 80.4968 12.3441C80.0408 12.4188 79.6328 12.6721 79.3621 13.0468L75.0435 19.0375C74.9088 19.2228 74.8128 19.4321 74.7608 19.6535C74.7075 19.8748 74.6995 20.1041 74.7355 20.3295C74.7728 20.5548 74.8528 20.7708 74.9728 20.9641C75.0941 21.1575 75.2515 21.3255 75.4368 21.4588Z" fill="#1461A3"/>
<path d="M57.3801 20.0133C57.4735 20.2227 57.6068 20.4107 57.7735 20.568C57.9388 20.7253 58.1348 20.8493 58.3495 20.9307C58.5628 21.0133 58.7908 21.052 59.0201 21.0467C59.2495 21.04 59.4761 20.9893 59.6855 20.8973C59.8948 20.804 60.0841 20.6707 60.2415 20.5053C60.4001 20.34 60.5228 20.144 60.6055 19.9307C60.6881 19.7173 60.7268 19.4907 60.7215 19.2627C60.7161 19.0333 60.6655 18.808 60.5721 18.6L57.5108 11.852C57.4175 11.644 57.2841 11.4573 57.1175 11.3013C56.9521 11.1453 56.7561 11.024 56.5428 10.9427C56.3295 10.8627 56.1028 10.824 55.8748 10.8307C55.6468 10.8373 55.4215 10.8893 55.2135 10.9827C54.7935 11.172 54.4641 11.5187 54.3001 11.9493C54.1361 12.3787 54.1495 12.856 54.3375 13.276L57.3801 20.0133Z" fill="#1461A3"/>
<path d="M52.7273 24.2441C53.046 24.5721 53.4807 24.7628 53.938 24.7735C54.3953 24.7841 54.8393 24.6148 55.1727 24.3015C55.506 23.9895 55.702 23.5575 55.7193 23.1015C55.7367 22.6455 55.5727 22.2015 55.2633 21.8655L50.1847 16.4855C50.0287 16.3188 49.8407 16.1855 49.6327 16.0908C49.4233 15.9975 49.1993 15.9455 48.97 15.9375C48.7407 15.9308 48.5127 15.9681 48.2993 16.0481C48.0847 16.1281 47.8887 16.2508 47.722 16.4068C47.3847 16.7215 47.1873 17.1575 47.1727 17.6175C47.1567 18.0775 47.326 18.5255 47.642 18.8615L52.7273 24.2441Z" fill="#1461A3"/>
<path d="M43.3341 26.4851L50.0008 29.7157C50.4141 29.9037 50.8848 29.9224 51.3128 29.7691C51.7395 29.6157 52.0901 29.3024 52.2888 28.8944C52.4875 28.4877 52.5181 28.0184 52.3755 27.5891C52.2315 27.1597 51.9261 26.8024 51.5221 26.5944L44.8555 23.3637C44.4421 23.1757 43.9715 23.1571 43.5435 23.3104C43.1168 23.4637 42.7661 23.7771 42.5675 24.1851C42.3688 24.5917 42.3381 25.0611 42.4808 25.4904C42.6248 25.9197 42.9301 26.2771 43.3341 26.4851Z" fill="#1461A3"/>
</g>
</svg>
